<svg width="109" height="18" viewBox="0 0 109 18" fill="none" xmlns="http://www.w3.org/2000/svg">
<path d="M90.564 11.296V9.976L94.488 4.36H96.444V9.832H97.5V11.296H96.444V13H94.764V11.296H90.564ZM94.872 6.16L92.412 9.832H94.872V6.16ZM99.4768 13.084C99.1728 13.084 98.9208 12.992 98.7208 12.808C98.5288 12.616 98.4328 12.38 98.4328 12.1C98.4328 11.82 98.5288 11.588 98.7208 11.404C98.9208 11.212 99.1728 11.116 99.4768 11.116C99.7728 11.116 100.017 11.212 100.209 11.404C100.401 11.588 100.497 11.82 100.497 12.1C100.497 12.38 100.401 12.616 100.209 12.808C100.017 12.992 99.7728 13.084 99.4768 13.084ZM103.573 10.54C103.637 10.892 103.781 11.164 104.005 11.356C104.237 11.54 104.545 11.632 104.929 11.632C105.425 11.632 105.785 11.428 106.009 11.02C106.233 10.604 106.345 9.908 106.345 8.932C106.161 9.188 105.901 9.388 105.565 9.532C105.237 9.676 104.881 9.748 104.497 9.748C103.985 9.748 103.521 9.644 103.105 9.436C102.697 9.22 102.373 8.904 102.133 8.488C101.893 8.064 101.773 7.552 101.773 6.952C101.773 6.064 102.037 5.36 102.565 4.84C103.093 4.312 103.813 4.048 104.725 4.048C105.861 4.048 106.661 4.412 107.125 5.14C107.597 5.868 107.833 6.964 107.833 8.428C107.833 9.468 107.741 10.32 107.557 10.984C107.381 11.648 107.073 12.152 106.633 12.496C106.201 12.84 105.609 13.012 104.857 13.012C104.265 13.012 103.761 12.9 103.345 12.676C102.929 12.444 102.609 12.144 102.385 11.776C102.169 11.4 102.045 10.988 102.013 10.54H103.573ZM104.845 8.38C105.261 8.38 105.589 8.252 105.829 7.996C106.069 7.74 106.189 7.396 106.189 6.964C106.189 6.492 106.061 6.128 105.805 5.872C105.557 5.608 105.217 5.476 104.785 5.476C104.353 5.476 104.009 5.612 103.753 5.884C103.505 6.148 103.381 6.5 103.381 6.94C103.381 7.364 103.501 7.712 103.741 7.984C103.989 8.248 104.357 8.38 104.845 8.38Z" fill="black"/>
<path d="M7.49621 3.78269C7.65053 3.33874 7.72768 3.11677 7.84178 3.05525C7.94052 3.00201 8.05943 3.00201 8.15818 3.05525C8.27227 3.11677 8.34943 3.33874 8.50374 3.78269L9.52392 6.71761C9.56784 6.84397 9.5898 6.90714 9.62938 6.95419C9.66433 6.99575 9.70891 7.02814 9.75924 7.04854C9.81622 7.07164 9.88309 7.073 10.0168 7.07573L13.1234 7.13903C13.5933 7.14861 13.8282 7.1534 13.922 7.2429C14.0031 7.32036 14.0399 7.43344 14.0198 7.54381C13.9965 7.67133 13.8092 7.81331 13.4347 8.09726L10.9587 9.97445C10.8521 10.0553 10.7988 10.0957 10.7663 10.1478C10.7375 10.1939 10.7205 10.2463 10.7167 10.3005C10.7123 10.3618 10.7317 10.4259 10.7704 10.5539L11.6702 13.5279C11.8063 13.9778 11.8743 14.2027 11.8182 14.3196C11.7696 14.4207 11.6734 14.4906 11.5622 14.5055C11.4337 14.5228 11.2408 14.3886 10.8551 14.1202L8.30461 12.3454C8.19481 12.269 8.13991 12.2308 8.08024 12.216C8.02753 12.2029 7.97242 12.2029 7.91971 12.216C7.86005 12.2308 7.80515 12.269 7.69535 12.3454L5.1449 14.1202C4.75911 14.3886 4.56622 14.5228 4.43775 14.5055C4.32657 14.4906 4.23037 14.4207 4.18178 14.3196C4.12564 14.2027 4.19369 13.9778 4.32979 13.5279L5.22955 10.5539C5.26829 10.4259 5.28765 10.3618 5.28329 10.3005C5.27944 10.2463 5.26241 10.1939 5.23369 10.1478C5.20117 10.0957 5.14787 10.0553 5.04128 9.97445L2.56525 8.09726C2.19072 7.81331 2.00345 7.67133 1.9802 7.54381C1.96008 7.43344 1.99683 7.32036 2.07798 7.2429C2.17174 7.1534 2.40669 7.14861 2.87659 7.13903L5.98313 7.07573C6.11687 7.073 6.18374 7.07164 6.24071 7.04854C6.29104 7.02814 6.33562 6.99575 6.37058 6.95419C6.41015 6.90714 6.43211 6.84397 6.47603 6.71761L7.49621 3.78269Z" fill="#EBE100" stroke="#EBE100" stroke-width="1.33333" stroke-linecap="round" stroke-linejoin="round"/>
<path d="M24.4962 3.78269C24.6505 3.33874 24.7277 3.11677 24.8418 3.05525C24.9405 3.00201 25.0594 3.00201 25.1582 3.05525C25.2723 3.11677 25.3494 3.33874 25.5037 3.78269L26.5239 6.71761C26.5678 6.84397 26.5898 6.90714 26.6294 6.95419C26.6643 6.99575 26.7089 7.02814 26.7592 7.04854C26.8162 7.07164 26.8831 7.073 27.0168 7.07573L30.1234 7.13903C30.5933 7.14861 30.8282 7.1534 30.922 7.2429C31.0031 7.32036 31.0399 7.43344 31.0198 7.54381C30.9965 7.67133 30.8092 7.81331 30.4347 8.09726L27.9587 9.97445C27.8521 10.0553 27.7988 10.0957 27.7663 10.1478C27.7375 10.1939 27.7205 10.2463 27.7167 10.3005C27.7123 10.3618 27.7317 10.4259 27.7704 10.5539L28.6702 13.5279C28.8063 13.9778 28.8743 14.2027 28.8182 14.3196C28.7696 14.4207 28.6734 14.4906 28.5622 14.5055C28.4337 14.5228 28.2408 14.3886 27.8551 14.1202L25.3046 12.3454C25.1948 12.269 25.1399 12.2308 25.0802 12.216C25.0275 12.2029 24.9724 12.2029 24.9197 12.216C24.86 12.2308 24.8051 12.269 24.6953 12.3454L22.1449 14.1202C21.7591 14.3886 21.5662 14.5228 21.4378 14.5055C21.3266 14.4906 21.2304 14.4207 21.1818 14.3196C21.1256 14.2027 21.1937 13.9778 21.3298 13.5279L22.2296 10.5539C22.2683 10.4259 22.2877 10.3618 22.2833 10.3005C22.2794 10.2463 22.2624 10.1939 22.2337 10.1478C22.2012 10.0957 22.1479 10.0553 22.0413 9.97445L19.5653 8.09726C19.1907 7.81331 19.0035 7.67133 18.9802 7.54381C18.9601 7.43344 18.9968 7.32036 19.078 7.2429C19.1717 7.1534 19.4067 7.14861 19.8766 7.13903L22.9831 7.07573C23.1169 7.073 23.1837 7.07164 23.2407 7.04854C23.291 7.02814 23.3356 6.99575 23.3706 6.95419C23.4102 6.90714 23.4321 6.84397 23.476 6.71761L24.4962 3.78269Z" fill="#EBE100" stroke="#EBE100" stroke-width="1.33333" stroke-linecap="round" stroke-linejoin="round"/>
<path d="M41.4962 3.78269C41.6505 3.33874 41.7277 3.11677 41.8418 3.05525C41.9405 3.00201 42.0594 3.00201 42.1582 3.05525C42.2723 3.11677 42.3494 3.33874 42.5037 3.78269L43.5239 6.71761C43.5678 6.84397 43.5898 6.90714 43.6294 6.95419C43.6643 6.99575 43.7089 7.02814 43.7592 7.04854C43.8162 7.07164 43.8831 7.073 44.0168 7.07573L47.1234 7.13903C47.5933 7.14861 47.8282 7.1534 47.922 7.2429C48.0031 7.32036 48.0399 7.43344 48.0198 7.54381C47.9965 7.67133 47.8092 7.81331 47.4347 8.09726L44.9587 9.97445C44.8521 10.0553 44.7988 10.0957 44.7663 10.1478C44.7375 10.1939 44.7205 10.2463 44.7167 10.3005C44.7123 10.3618 44.7317 10.4259 44.7704 10.5539L45.6702 13.5279C45.8063 13.9778 45.8743 14.2027 45.8182 14.3196C45.7696 14.4207 45.6734 14.4906 45.5622 14.5055C45.4337 14.5228 45.2408 14.3886 44.8551 14.1202L42.3046 12.3454C42.1948 12.269 42.1399 12.2308 42.0802 12.216C42.0275 12.2029 41.9724 12.2029 41.9197 12.216C41.86 12.2308 41.8051 12.269 41.6953 12.3454L39.1449 14.1202C38.7591 14.3886 38.5662 14.5228 38.4378 14.5055C38.3266 14.4906 38.2304 14.4207 38.1818 14.3196C38.1256 14.2027 38.1937 13.9778 38.3298 13.5279L39.2296 10.5539C39.2683 10.4259 39.2877 10.3618 39.2833 10.3005C39.2794 10.2463 39.2624 10.1939 39.2337 10.1478C39.2012 10.0957 39.1479 10.0553 39.0413 9.97445L36.5653 8.09726C36.1907 7.81331 36.0035 7.67133 35.9802 7.54381C35.9601 7.43344 35.9968 7.32036 36.078 7.2429C36.1717 7.1534 36.4067 7.14861 36.8766 7.13903L39.9831 7.07573C40.1169 7.073 40.1837 7.07164 40.2407 7.04854C40.291 7.02814 40.3356 6.99575 40.3706 6.95419C40.4102 6.90714 40.4321 6.84397 40.476 6.71761L41.4962 3.78269Z" fill="#EBE100" stroke="#EBE100" stroke-width="1.33333" stroke-linecap="round" stroke-linejoin="round"/>
<path d="M58.4962 3.78269C58.6505 3.33874 58.7277 3.11677 58.8418 3.05525C58.9405 3.00201 59.0594 3.00201 59.1582 3.05525C59.2723 3.11677 59.3494 3.33874 59.5037 3.78269L60.5239 6.71761C60.5678 6.84397 60.5898 6.90714 60.6294 6.95419C60.6643 6.99575 60.7089 7.02814 60.7592 7.04854C60.8162 7.07164 60.8831 7.073 61.0168 7.07573L64.1234 7.13903C64.5933 7.14861 64.8282 7.1534 64.922 7.2429C65.0031 7.32036 65.0399 7.43344 65.0198 7.54381C64.9965 7.67133 64.8092 7.81331 64.4347 8.09726L61.9587 9.97445C61.8521 10.0553 61.7988 10.0957 61.7663 10.1478C61.7375 10.1939 61.7205 10.2463 61.7167 10.3005C61.7123 10.3618 61.7317 10.4259 61.7704 10.5539L62.6702 13.5279C62.8063 13.9778 62.8743 14.2027 62.8182 14.3196C62.7696 14.4207 62.6734 14.4906 62.5622 14.5055C62.4337 14.5228 62.2408 14.3886 61.8551 14.1202L59.3046 12.3454C59.1948 12.269 59.1399 12.2308 59.0802 12.216C59.0275 12.2029 58.9724 12.2029 58.9197 12.216C58.86 12.2308 58.8051 12.269 58.6953 12.3454L56.1449 14.1202C55.7591 14.3886 55.5662 14.5228 55.4378 14.5055C55.3266 14.4906 55.2304 14.4207 55.1818 14.3196C55.1256 14.2027 55.1937 13.9778 55.3298 13.5279L56.2296 10.5539C56.2683 10.4259 56.2877 10.3618 56.2833 10.3005C56.2794 10.2463 56.2624 10.1939 56.2337 10.1478C56.2012 10.0957 56.1479 10.0553 56.0413 9.97445L53.5653 8.09726C53.1907 7.81331 53.0035 7.67133 52.9802 7.54381C52.9601 7.43344 52.9968 7.32036 53.078 7.2429C53.1717 7.1534 53.4067 7.14861 53.8766 7.13903L56.9831 7.07573C57.1169 7.073 57.1837 7.07164 57.2407 7.04854C57.291 7.02814 57.3356 6.99575 57.3706 6.95419C57.4102 6.90714 57.4321 6.84397 57.476 6.71761L58.4962 3.78269Z" fill="#EBE100" stroke="#EBE100" stroke-width="1.33333" stroke-linecap="round" stroke-linejoin="round"/>
<path d="M75.4962 3.78269C75.6505 3.33874 75.7277 3.11677 75.8418 3.05525C75.9405 3.00201 76.0594 3.00201 76.1582 3.05525C76.2723 3.11677 76.3494 3.33874 76.5037 3.78269L77.5239 6.71761C77.5678 6.84397 77.5898 6.90714 77.6294 6.95419C77.6643 6.99575 77.7089 7.02814 77.7592 7.04854C77.8162 7.07164 77.8831 7.073 78.0168 7.07573L81.1234 7.13903C81.5933 7.14861 81.8282 7.1534 81.922 7.2429C82.0031 7.32036 82.0399 7.43344 82.0198 7.54381C81.9965 7.67133 81.8092 7.81331 81.4347 8.09726L78.9587 9.97445C78.8521 10.0553 78.7988 10.0957 78.7663 10.1478C78.7375 10.1939 78.7205 10.2463 78.7167 10.3005C78.7123 10.3618 78.7317 10.4259 78.7704 10.5539L79.6702 13.5279C79.8063 13.9778 79.8743 14.2027 79.8182 14.3196C79.7696 14.4207 79.6734 14.4906 79.5622 14.5055C79.4337 14.5228 79.2408 14.3886 78.8551 14.1202L76.3046 12.3454C76.1948 12.269 76.1399 12.2308 76.0802 12.216C76.0275 12.2029 75.9724 12.2029 75.9197 12.216C75.86 12.2308 75.8051 12.269 75.6953 12.3454L73.1449 14.1202C72.7591 14.3886 72.5662 14.5228 72.4378 14.5055C72.3266 14.4906 72.2304 14.4207 72.1818 14.3196C72.1256 14.2027 72.1937 13.9778 72.3298 13.5279L73.2296 10.5539C73.2683 10.4259 73.2877 10.3618 73.2833 10.3005C73.2794 10.2463 73.2624 10.1939 73.2337 10.1478C73.2012 10.0957 73.1479 10.0553 73.0413 9.97445L70.5653 8.09726C70.1907 7.81331 70.0035 7.67133 69.9802 7.54381C69.9601 7.43344 69.9968 7.32036 70.078 7.2429C70.1717 7.1534 70.4067 7.14861 70.8766 7.13903L73.9831 7.07573C74.1169 7.073 74.1837 7.07164 74.2407 7.04854C74.291 7.02814 74.3356 6.99575 74.3706 6.95419C74.4102 6.90714 74.4321 6.84397 74.476 6.71761L75.4962 3.78269Z" fill="#EBE100" stroke="#EBE100" stroke-width="1.33333" stroke-linecap="round" stroke-linejoin="round"/>
</svg>
