<svg width="20" height="20" viewBox="0 0 20 20" fill="none" xmlns="http://www.w3.org/2000/svg">
<path d="M11.6666 4.66683C11.6666 4.20012 11.6666 3.96676 11.7575 3.7885C11.8374 3.6317 11.9649 3.50422 12.1217 3.42432C12.2999 3.3335 12.5333 3.3335 13 3.3335H15.3333C15.8 3.3335 16.0334 3.3335 16.2116 3.42432C16.3684 3.50422 16.4959 3.6317 16.5758 3.7885C16.6666 3.96676 16.6666 4.20012 16.6666 4.66683V7.00016C16.6666 7.46687 16.6666 7.70023 16.5758 7.87849C16.4959 8.03529 16.3684 8.16277 16.2116 8.24267C16.0334 8.3335 15.8 8.3335 15.3333 8.3335H13C12.5333 8.3335 12.2999 8.3335 12.1217 8.24267C11.9649 8.16277 11.8374 8.03529 11.7575 7.87849C11.6666 7.70023 11.6666 7.46687 11.6666 7.00016V4.66683Z" stroke="#5228B6" stroke-width="2" stroke-linecap="round" stroke-linejoin="round"/>
<path d="M3.33331 4.66683C3.33331 4.20012 3.33331 3.96676 3.42414 3.7885C3.50404 3.6317 3.63152 3.50422 3.78832 3.42432C3.96658 3.3335 4.19994 3.3335 4.66665 3.3335H6.99998C7.46669 3.3335 7.70005 3.3335 7.8783 3.42432C8.03511 3.50422 8.16259 3.6317 8.24248 3.7885C8.33331 3.96676 8.33331 4.20012 8.33331 4.66683V7.00016C8.33331 7.46687 8.33331 7.70023 8.24248 7.87849C8.16259 8.03529 8.03511 8.16277 7.8783 8.24267C7.70005 8.3335 7.46669 8.3335 6.99998 8.3335H4.66665C4.19994 8.3335 3.96658 8.3335 3.78832 8.24267C3.63152 8.16277 3.50404 8.03529 3.42414 7.87849C3.33331 7.70023 3.33331 7.46687 3.33331 7.00016V4.66683Z" stroke="#5228B6" stroke-width="2" stroke-linecap="round" stroke-linejoin="round"/>
<path d="M3.33331 13.0002C3.33331 12.5335 3.33331 12.3001 3.42414 12.1218C3.50404 11.965 3.63152 11.8376 3.78832 11.7577C3.96658 11.6668 4.19994 11.6668 4.66665 11.6668H6.99998C7.46669 11.6668 7.70005 11.6668 7.8783 11.7577C8.03511 11.8376 8.16259 11.965 8.24248 12.1218C8.33331 12.3001 8.33331 12.5335 8.33331 13.0002V15.3335C8.33331 15.8002 8.33331 16.0336 8.24248 16.2118C8.16259 16.3686 8.03511 16.4961 7.8783 16.576C7.70005 16.6668 7.46669 16.6668 6.99998 16.6668H4.66665C4.19994 16.6668 3.96658 16.6668 3.78832 16.576C3.63152 16.4961 3.50404 16.3686 3.42414 16.2118C3.33331 16.0336 3.33331 15.8002 3.33331 15.3335V13.0002Z" stroke="#5228B6" stroke-width="2" stroke-linecap="round" stroke-linejoin="round"/>
<path d="M11.6666 13.0002C11.6666 12.5335 11.6666 12.3001 11.7575 12.1218C11.8374 11.965 11.9649 11.8376 12.1217 11.7577C12.2999 11.6668 12.5333 11.6668 13 11.6668H15.3333C15.8 11.6668 16.0334 11.6668 16.2116 11.7577C16.3684 11.8376 16.4959 11.965 16.5758 12.1218C16.6666 12.3001 16.6666 12.5335 16.6666 13.0002V15.3335C16.6666 15.8002 16.6666 16.0336 16.5758 16.2118C16.4959 16.3686 16.3684 16.4961 16.2116 16.576C16.0334 16.6668 15.8 16.6668 15.3333 16.6668H13C12.5333 16.6668 12.2999 16.6668 12.1217 16.576C11.9649 16.4961 11.8374 16.3686 11.7575 16.2118C11.6666 16.0336 11.6666 15.8002 11.6666 15.3335V13.0002Z" stroke="#5228B6" stroke-width="2" stroke-linecap="round" stroke-linejoin="round"/>
</svg>
